<svg width="26" height="26" viewBox="0 0 26 26" fill="none" xmlns="http://www.w3.org/2000/svg">
<path d="M13.0001 9.75L3.8849 18.8652C3.47854 19.2714 3.25019 19.8224 3.25007 20.397V21.853C3.24994 22.4276 3.02159 22.9786 2.61523 23.3848C3.02147 22.9785 3.57248 22.7501 4.14707 22.75H5.60307C6.17766 22.7499 6.72867 22.5215 7.1349 22.1152L16.2501 13" stroke="black" stroke-width="2" stroke-linecap="round" stroke-linejoin="round"/>
<path d="M19.5 9.74999L19.9333 10.1833C20.1467 10.3967 20.316 10.6501 20.4315 10.9289C20.547 11.2077 20.6064 11.5065 20.6064 11.8083C20.6064 12.1101 20.547 12.4089 20.4315 12.6878C20.316 12.9666 20.1467 13.2199 19.9333 13.4333C19.7199 13.6467 19.4666 13.816 19.1878 13.9315C18.9089 14.047 18.6101 14.1064 18.3083 14.1064C18.0065 14.1064 17.7077 14.047 17.4289 13.9315C17.1501 13.816 16.8967 13.6467 16.6833 13.4333L12.5667 9.31665C12.1357 8.88568 11.8936 8.30115 11.8936 7.69165C11.8936 7.38986 11.953 7.09103 12.0685 6.81221C12.184 6.53339 12.3533 6.28005 12.5667 6.06665C12.7801 5.85325 13.0334 5.68398 13.3122 5.56849C13.591 5.453 13.8899 5.39355 14.1917 5.39355C14.8011 5.39355 15.3857 5.63567 15.8167 6.06665L16.25 6.49999L19.9333 2.81665C20.3643 2.38567 20.9488 2.14355 21.5583 2.14355C22.1678 2.14355 22.7523 2.38567 23.1833 2.81665C23.6143 3.24763 23.8564 3.83216 23.8564 4.44165C23.8564 5.05114 23.6143 5.63567 23.1833 6.06665L19.5 9.74999Z" stroke="black" stroke-width="2" stroke-linecap="round" stroke-linejoin="round"/>
<path d="M2.16675 23.8334L2.61525 23.3849" stroke="black" stroke-width="2" stroke-linecap="round" stroke-linejoin="round"/>
</svg>
