<svg width="34" height="23" viewBox="0 0 34 23" fill="none" xmlns="http://www.w3.org/2000/svg">
<path d="M16.7178 0.25C17.0842 0.25 17.4481 0.258346 17.8086 0.274414L17.7979 0.524414L17.7969 0.526367C18.5266 0.558876 19.2432 0.621942 19.9434 0.717773H19.9443L19.9785 0.469727C20.7122 0.570191 21.4289 0.704525 22.124 0.869141L22.0664 1.1123L22.0654 1.11426C22.7795 1.28336 23.4702 1.4865 24.1348 1.71875L24.1367 1.71582L24.2188 1.47949C24.9224 1.72542 25.5974 2.0052 26.2383 2.31543L26.1289 2.54004L26.127 2.54297C26.7917 2.86472 27.4191 3.21896 28.0039 3.60352L28.0059 3.60156L28.1436 3.39258C28.772 3.80582 29.3528 4.25364 29.8799 4.73145L29.7109 4.91699C30.2605 5.41513 30.7495 5.94552 31.1699 6.50391L31.3701 6.35352C31.8243 6.95678 32.2021 7.59341 32.4932 8.25684L32.2646 8.35742H32.2627C32.5546 9.02253 32.7566 9.7135 32.8584 10.4248L33.1074 10.3887C33.1597 10.7542 33.1855 11.1252 33.1855 11.5C33.1855 11.8748 33.1597 12.2458 33.1074 12.6113L32.8594 12.5752L32.8584 12.5742C32.7567 13.2856 32.5545 13.9764 32.2627 14.6416L32.2646 14.6426L32.4932 14.7432C32.2021 15.4066 31.8243 16.0432 31.3701 16.6465L31.1699 16.4951C30.7495 17.0536 30.2605 17.5838 29.7109 18.082L29.7119 18.083L29.8799 18.2686C29.3528 18.7464 28.772 19.1942 28.1436 19.6074L28.0059 19.3984L28.0039 19.3955C27.419 19.7801 26.7917 20.1343 26.127 20.4561L26.1289 20.46L26.2383 20.6846C25.5974 20.9948 24.9224 21.2746 24.2188 21.5205L24.1367 21.2842L24.1348 21.2803C23.4702 21.5125 22.7795 21.7156 22.0654 21.8848L22.0664 21.8877L22.124 22.1309C21.4289 22.2955 20.7122 22.4298 19.9785 22.5303L19.9443 22.2822L19.9434 22.2812C19.2431 22.3771 18.5266 22.4401 17.7969 22.4727L17.7979 22.4756L17.8086 22.7256C17.4481 22.7417 17.0842 22.75 16.7178 22.75C16.3514 22.75 15.9874 22.7417 15.627 22.7256L15.6387 22.4756V22.4727C14.9086 22.4401 14.1917 22.3772 13.4912 22.2812V22.2822L13.457 22.5303C12.7234 22.4298 12.0075 22.2954 11.3125 22.1309L11.3701 21.8877V21.8848C10.6557 21.7156 9.96468 21.5127 9.2998 21.2803L9.29883 21.2842L9.2168 21.5205C8.51334 21.2746 7.83896 20.9947 7.19824 20.6846L7.30664 20.46L7.30762 20.4561C6.6429 20.1342 6.01547 19.7801 5.43066 19.3955L5.42969 19.3984L5.29297 19.6074C4.66446 19.1941 4.0828 18.7464 3.55566 18.2686L3.72363 18.083V18.082C3.17433 17.584 2.68591 17.0534 2.26562 16.4951V16.4961L2.06543 16.6465C1.61119 16.0432 1.23349 15.4067 0.942383 14.7432L1.1709 14.6426L1.17188 14.6416C0.880169 13.9766 0.678783 13.2854 0.577148 12.5742L0.576172 12.5752L0.329102 12.6113C0.276813 12.2458 0.25 11.8748 0.25 11.5C0.25 11.1252 0.276813 10.7542 0.329102 10.3887L0.576172 10.4248H0.577148C0.678869 9.71366 0.880106 9.02239 1.17188 8.35742H1.1709L0.942383 8.25684C1.23349 7.59335 1.61119 6.95683 2.06543 6.35352L2.26562 6.50391C2.68592 5.94571 3.17433 5.41499 3.72363 4.91699L3.55566 4.73145C4.0828 4.25355 4.66446 3.80588 5.29297 3.39258L5.42969 3.60156L5.43066 3.60352C6.01545 3.21894 6.64293 2.86476 7.30762 2.54297L7.30664 2.54004L7.19824 2.31543C7.83896 2.00528 8.51334 1.72537 9.2168 1.47949L9.29883 1.71582L9.2998 1.71875C9.96465 1.48636 10.6557 1.28345 11.3701 1.11426V1.1123L11.3125 0.869141C12.0075 0.704552 12.7234 0.570182 13.457 0.469727L13.4912 0.717773C14.1917 0.621857 14.9086 0.558904 15.6387 0.526367V0.524414L15.627 0.274414C15.9874 0.258349 16.3514 0.250003 16.7178 0.25Z" stroke="#3E3737" stroke-width="0.5" stroke-dasharray="2 2"/>
</svg>
